<svg width="40" height="40" viewBox="0 0 40 40" fill="none" xmlns="http://www.w3.org/2000/svg">
<g clip-path="url(#clip0_755_4202)">
<path d="M34.6667 28H14.6667C12.4613 28 10.6667 26.2053 10.6667 24V9.33333C10.6667 6.392 8.27467 4 5.33333 4C4.596 4 4 4.59733 4 5.33333C4 6.06933 4.596 6.66667 5.33333 6.66667C6.804 6.66667 8 7.86267 8 9.33333V24C8 26.728 9.648 29.0787 12 30.1093V31.3333C12 33.9067 14.0933 36 16.6667 36C19.24 36 21.3333 33.9067 21.3333 31.3333V30.6667H25.3333V31.3333C25.3333 33.9067 27.4267 36 30 36C32.5733 36 34.6667 33.9067 34.6667 31.3333V30.6667C35.404 30.6667 36 30.0707 36 29.3333C36 28.596 35.404 28 34.6667 28ZM18.6667 31.3333C18.6667 32.436 17.7693 33.3333 16.6667 33.3333C15.564 33.3333 14.6667 32.436 14.6667 31.3333V30.6667H18.6667V31.3333ZM32 31.3333C32 32.436 31.1027 33.3333 30 33.3333C28.8973 33.3333 28 32.436 28 31.3333V30.6667H32V31.3333ZM18.6667 25.3333H29.3333C32.2747 25.3333 34.6667 22.9413 34.6667 20V13.3333C34.6667 10.392 32.2747 8 29.3333 8H18.6667C15.7253 8 13.3333 10.392 13.3333 13.3333V20C13.3333 22.9413 15.7253 25.3333 18.6667 25.3333ZM22.6667 10.6667H25.3333V14.6667H22.6667V10.6667ZM16 13.3333C16 11.8627 17.196 10.6667 18.6667 10.6667H20V14.6667C20 16.1373 21.196 17.3333 22.6667 17.3333H25.3333C26.804 17.3333 28 16.1373 28 14.6667V10.6667H29.3333C30.804 10.6667 32 11.8627 32 13.3333V20C32 21.4707 30.804 22.6667 29.3333 22.6667H18.6667C17.196 22.6667 16 21.4707 16 20V13.3333Z" fill="#FF610C"/>
</g>
<defs>
<clipPath id="clip0_755_4202">
<rect width="32" height="32" fill="white" transform="translate(4 4)"/>
</clipPath>
</defs>
</svg>
