<svg width="40" height="40" viewBox="0 0 40 40" fill="none" xmlns="http://www.w3.org/2000/svg">
<rect width="40" height="40" rx="16" fill="#E8E8F9"/>
<path d="M29.4674 21.8853L29.0082 21.6263C29.112 21.0832 29.164 20.5381 29.164 20C29.164 19.4619 29.111 18.9168 29.0082 18.3737L29.4664 18.1147C30.1741 17.7156 30.6812 17.0685 30.893 16.2954C31.1058 15.5223 30.9989 14.7121 30.5926 14.019C30.1863 13.3239 29.5275 12.8258 28.7404 12.6178C27.9512 12.4087 27.1284 12.5138 26.4228 12.9128L25.9645 13.1719C25.1072 12.4517 24.1205 11.8926 23.0553 11.5226V11.0005C23.0553 9.34622 21.6847 8 20.0005 8C18.3163 8 16.9457 9.34622 16.9457 11.0005V11.5226C15.8796 11.8926 14.8928 12.4517 14.0365 13.1719L13.5782 12.9128C12.8726 12.5158 12.0488 12.4097 11.2596 12.6178C10.4725 12.8258 9.8147 13.3239 9.40841 14.018C9.0011 14.7121 8.89418 15.5213 9.107 16.2954C9.3188 17.0685 9.82591 17.7146 10.5336 18.1147L10.9928 18.3747C10.889 18.9188 10.8371 19.4629 10.8371 20C10.8371 20.5371 10.889 21.0812 10.9928 21.6253L10.5336 21.8853C9.82591 22.2854 9.31982 22.9315 9.107 23.7046C8.89418 24.4787 9.0011 25.2879 9.40739 25.981C9.81369 26.6761 10.4715 27.1742 11.2596 27.3822C12.0447 27.5903 12.8705 27.4862 13.5782 27.0872L14.0365 26.8281C14.8928 27.5493 15.8796 28.1074 16.9457 28.4774V28.9995C16.9457 30.6538 18.3163 32 20.0005 32C21.6847 32 23.0553 30.6538 23.0553 28.9995V28.4774C24.1215 28.1074 25.1082 27.5473 25.9645 26.8281L26.4217 27.0872C27.1295 27.4853 27.9543 27.5903 28.7404 27.3822C29.5275 27.1742 30.1863 26.6761 30.5926 25.982C30.9989 25.2879 31.1058 24.4777 30.893 23.7046C30.6812 22.9315 30.1741 22.2844 29.4674 21.8853ZM26.8647 18.1427C27.0388 18.7638 27.1274 19.3889 27.1274 20C27.1274 20.6111 27.0388 21.2362 26.8647 21.8573C26.7415 22.2964 26.936 22.7625 27.3382 22.9905L28.4522 23.6196C28.6874 23.7526 28.8564 23.9687 28.9277 24.2257C28.999 24.4837 28.9634 24.7518 28.8269 24.9848C28.6915 25.2159 28.4715 25.3819 28.2098 25.4519C27.9451 25.5219 27.6742 25.4869 27.437 25.3529L26.326 24.7258C25.9258 24.5008 25.4167 24.5678 25.0909 24.8938C24.1856 25.802 23.0411 26.4511 21.7815 26.7711C21.3324 26.8841 21.0178 27.2832 21.0178 27.7393V29.0015C21.0178 29.5536 20.5606 30.0017 19.9995 30.0017C19.4384 30.0017 18.9812 29.5536 18.9812 29.0015V27.7393C18.9812 27.2832 18.6666 26.8851 18.2175 26.7711C16.9569 26.4511 15.8134 25.802 14.9081 24.8938C14.7116 24.6968 14.4468 24.5928 14.18 24.5928C14.0069 24.5928 13.8318 24.6368 13.6729 24.7258L12.562 25.3529C12.3258 25.4859 12.0519 25.5209 11.7891 25.4519C11.5264 25.3829 11.3075 25.2169 11.1721 24.9838C11.0366 24.7528 11.001 24.4837 11.0713 24.2257C11.1425 23.9677 11.3116 23.7516 11.5468 23.6196L12.6598 22.9905C13.062 22.7625 13.2565 22.2974 13.1343 21.8583C12.9602 21.2342 12.8716 20.6091 12.8716 20C12.8716 19.3909 12.9602 18.7658 13.1343 18.1417C13.2575 17.7036 13.062 17.2375 12.6598 17.0095L11.5468 16.3804C11.3116 16.2474 11.1425 16.0313 11.0713 15.7743C11.001 15.5163 11.0366 15.2482 11.1721 15.0152C11.3075 14.7841 11.5264 14.6181 11.7891 14.5481C12.0519 14.4771 12.3258 14.5121 12.562 14.6471L13.6729 15.2742C14.0762 15.5013 14.5843 15.4312 14.9081 15.1062C15.8134 14.198 16.9569 13.5489 18.2175 13.2289C18.6666 13.1159 18.9812 12.7168 18.9812 12.2607V10.9985C18.9812 10.4464 19.4384 9.99833 19.9995 9.99833C20.5606 9.99833 21.0178 10.4464 21.0178 10.9985V12.2607C21.0178 12.7168 21.3324 13.1149 21.7815 13.2289C23.0411 13.5489 24.1856 14.198 25.0909 15.1062C25.4157 15.4332 25.9238 15.4993 26.326 15.2742L27.438 14.6471C27.6712 14.5131 27.9441 14.4771 28.2098 14.5481C28.4726 14.6171 28.6925 14.7831 28.8269 15.0162C28.9634 15.2472 28.999 15.5163 28.9277 15.7743C28.8575 16.0323 28.6884 16.2484 28.4512 16.3804L27.3382 17.0095C26.936 17.2375 26.7415 17.7026 26.8647 18.1427Z" fill="#A9A9C4"/>
<path d="M22.3702 19.9995C22.37 18.7136 21.3083 17.6718 19.999 17.6718C18.69 17.672 17.6294 18.7138 17.6291 19.9995C17.6291 21.2855 18.6898 22.3283 19.999 22.3286C21.3084 22.3286 22.3702 21.2857 22.3702 19.9995ZM24.5585 19.9995C24.5585 22.4729 22.5171 24.478 19.999 24.478C17.4811 24.4777 15.4395 22.4727 15.4395 19.9995C15.4397 17.5266 17.4813 15.5213 19.999 15.5211C22.517 15.5211 24.5583 17.5264 24.5585 19.9995Z" fill="#A9A9C4"/>
</svg>
