<svg width="40" height="40" viewBox="0 0 40 40" fill="none" xmlns="http://www.w3.org/2000/svg">
<rect width="40" height="40" rx="16" fill="#F7EBFF"/>
<path d="M27.5833 12.3636H25.3073C24.8035 9.87745 22.6163 8 20 8H12.4167C9.42992 8 7 10.4469 7 13.4545V23.2727C7 25.3247 8.41808 27.0385 10.3161 27.5022C10.2749 27.7247 10.25 27.9516 10.25 28.1818C10.25 30.2873 11.9508 32 14.0417 32C16.1325 32 17.8333 30.2873 17.8333 28.1818C17.8333 27.9975 17.8149 27.8164 17.7889 27.6364H22.2111C22.1851 27.8164 22.1667 27.9975 22.1667 28.1818C22.1667 30.2873 23.8675 32 25.9583 32C28.0492 32 29.75 30.2873 29.75 28.1818C29.75 27.9516 29.7251 27.7247 29.6839 27.5022C31.5819 27.0385 33 25.3247 33 23.2727V17.8182C33 14.8105 30.5701 12.3636 27.5833 12.3636ZM30.8333 17.8182V18.9091H25.4167V14.5455H27.5833C29.3752 14.5455 30.8333 16.0138 30.8333 17.8182ZM9.16667 23.2727V13.4545C9.16667 11.6502 10.6248 10.1818 12.4167 10.1818H20C21.7918 10.1818 23.25 11.6502 23.25 13.4545V25.4545H11.3333C10.1384 25.4545 9.16667 24.476 9.16667 23.2727ZM15.6667 28.1818C15.6667 29.084 14.9376 29.8182 14.0417 29.8182C13.1458 29.8182 12.4167 29.084 12.4167 28.1818C12.4167 27.9745 12.4589 27.7935 12.5174 27.6364H15.5659C15.6244 27.7935 15.6667 27.9745 15.6667 28.1818ZM25.9583 29.8182C25.0624 29.8182 24.3333 29.084 24.3333 28.1818C24.3333 27.9745 24.3756 27.7935 24.4341 27.6364H27.4826C27.5411 27.7935 27.5833 27.9745 27.5833 28.1818C27.5833 29.084 26.8542 29.8182 25.9583 29.8182ZM28.6667 25.4545H25.4167V21.0909H30.8333V23.2727C30.8333 24.476 29.8616 25.4545 28.6667 25.4545ZM11.6508 18.6996C11.2272 18.2731 11.2272 17.5836 11.6508 17.1571C12.0743 16.7305 12.759 16.7305 13.1826 17.1571L14.7014 18.6865C15.0763 19.064 15.6873 19.064 16.0621 18.6865L19.2243 15.4193C19.6425 14.9884 20.3304 14.9807 20.7562 15.3996C21.1852 15.8207 21.1928 16.5113 20.7757 16.9433L17.6037 20.2193C16.9883 20.8389 16.1823 21.1487 15.3785 21.1487C14.5747 21.1487 13.7773 20.8422 13.1696 20.2291L11.6508 18.6996Z" fill="#C7AFC9"/>
</svg>
